fd_3_states
version=1
nRows=27
nColumns=17
inDegrees=yes

# SIMM Motion File Header:
name fd_3_states
datacolumns 17
datarows 27
otherdata 1
range 0.478616 0.481801
endheader
time	/jointset/r_shoulder/r_shoulder_elev/value	/jointset/r_shoulder/r_shoulder_elev/speed	/jointset/r_elbow/r_elbow_flex/value	/jointset/r_elbow/r_elbow_flex/speed	/forceset/TRIlong/activation	/forceset/TRIlong/fiber_length	/forceset/TRIlat/activation	/forceset/TRIlat/fiber_length	/forceset/TRImed/activation	/forceset/TRImed/fiber_length	/forceset/BIClong/activation	/forceset/BIClong/fiber_length	/forceset/BICshort/activation	/forceset/BICshort/fiber_length	/forceset/BRA/activation	/forceset/BRA/fiber_length
      0.478616	     12.498624	    394.060193	    184.544908	     33.489921	      0.024984	      0.187286	      0.422873	      0.112898	      0.414153	      0.107976	      0.927253	      0.049971	      0.742187	      0.052743	      0.711700	      0.038343
      0.478742	     12.548132	    394.123258	    184.549210	     35.015733	      0.024975	      0.187311	      0.421442	      0.112899	      0.412769	      0.107977	      0.927735	      0.049952	      0.744185	      0.052743	      0.713998	      0.038342
      0.478867	     12.597649	    394.190605	    184.553706	     36.556920	      0.024967	      0.187344	      0.420018	      0.112901	      0.411392	      0.107978	      0.928213	      0.049934	      0.746164	      0.052742	      0.716274	      0.038340
      0.478993	     12.647174	    394.262689	    184.558396	     38.113220	      0.024959	      0.187374	      0.418602	      0.112902	      0.410023	      0.107979	      0.928688	      0.049916	      0.748124	      0.052742	      0.718526	      0.038339
      0.479119	     12.696709	    394.338851	    184.563283	     39.684799	      0.024950	      0.187403	      0.417194	      0.112903	      0.408660	      0.107981	      0.929160	      0.049898	      0.750065	      0.052741	      0.720756	      0.038337
      0.479244	     12.746253	    394.419362	    184.568368	     41.271465	      0.024942	      0.187434	      0.415794	      0.112904	      0.407305	      0.107982	      0.929628	      0.049879	      0.751988	      0.052741	      0.722964	      0.038336
      0.479370	     12.795808	    394.503711	    184.573653	     42.873329	      0.024934	      0.187462	      0.414401	      0.112906	      0.405958	      0.107983	      0.930093	      0.049861	      0.753893	      0.052741	      0.725149	      0.038334
      0.479496	     12.845374	    394.592657	    184.579141	     44.490008	      0.024925	      0.187494	      0.413015	      0.112907	      0.404617	      0.107984	      0.930555	      0.049843	      0.755780	      0.052741	      0.727313	      0.038333
      0.479621	     12.894951	    394.684963	    184.584833	     46.121895	      0.024917	      0.187519	      0.411637	      0.112908	      0.403283	      0.107986	      0.931014	      0.049825	      0.757649	      0.052741	      0.729456	      0.038331
      0.479747	     12.944540	    394.781615	    184.590730	     47.768507	      0.024909	      0.187552	      0.410266	      0.112910	      0.401957	      0.107987	      0.931469	      0.049807	      0.759501	      0.052741	      0.731577	      0.038330
      0.479872	     12.994142	    394.882587	    184.596835	     49.429751	      0.024900	      0.187580	      0.408903	      0.112911	      0.400637	      0.107988	      0.931921	      0.049789	      0.761335	      0.052741	      0.733678	      0.038328
      0.479998	     13.043756	    394.987978	    184.603150	     51.105470	      0.024892	      0.187611	      0.407546	      0.112912	      0.399325	      0.107990	      0.932370	      0.049771	      0.763153	      0.052741	      0.735758	      0.038327
      0.480015	     13.050292	    395.001978	    184.603998	     51.327025	      0.024891	      0.187613	      0.407428	      0.112913	      0.399210	      0.107990	      0.932429	      0.049769	      0.762861	      0.052741	      0.735496	      0.038327
      0.480031	     13.056828	    395.015713	    184.604849	     51.548193	      0.024890	      0.187616	      0.407336	      0.112913	      0.399121	      0.107990	      0.932488	      0.049767	      0.762356	      0.052741	      0.735022	      0.038327
      0.480114	     13.089513	    395.081681	    184.609159	     52.647609	      0.024885	      0.187633	      0.406878	      0.112914	      0.398677	      0.107991	      0.932781	      0.049755	      0.759840	      0.052742	      0.732658	      0.038326
      0.480265	     13.149199	    395.189573	    184.617262	     54.627486	      0.024875	      0.187712	      0.406043	      0.112915	      0.397870	      0.107992	      0.933314	      0.049734	      0.755282	      0.052742	      0.728377	      0.038324
      0.480416	     13.208903	    395.306966	    184.625660	     56.561958	      0.024865	      0.187715	      0.405214	      0.112917	      0.397067	      0.107994	      0.933842	      0.049712	      0.750772	      0.052743	      0.724138	      0.038323
      0.480554	     13.263300	    395.390026	    184.633562	     58.296990	      0.024856	      0.187734	      0.404462	      0.112918	      0.396339	      0.107995	      0.934319	      0.049693	      0.746703	      0.052744	      0.720313	      0.038322
      0.480682	     13.313994	    395.453581	    184.641138	     59.887743	      0.024847	      0.187810	      0.403764	      0.112919	      0.395664	      0.107996	      0.934760	      0.049675	      0.742946	      0.052745	      0.716781	      0.038322
      0.480810	     13.364696	    395.528904	    184.648915	     61.443737	      0.024839	      0.187812	      0.403070	      0.112920	      0.394991	      0.107997	      0.935198	      0.049657	      0.739221	      0.052746	      0.713278	      0.038321
      0.480960	     13.424000	    395.590142	    184.658262	     63.235536	      0.024829	      0.187828	      0.402262	      0.112922	      0.394209	      0.107999	      0.935707	      0.049637	      0.734906	      0.052748	      0.709218	      0.038320
      0.481096	     13.477872	    395.628976	    184.666982	     64.833701	      0.024821	      0.187919	      0.401532	      0.112923	      0.393502	      0.108000	      0.936165	      0.049618	      0.731024	      0.052750	      0.705565	      0.038320
      0.481232	     13.531751	    395.686514	    184.675917	     66.390426	      0.024812	      0.187918	      0.400805	      0.112924	      0.392798	      0.108001	      0.936620	      0.049599	      0.727177	      0.052752	      0.701944	      0.038320
      0.481391	     13.594658	    395.720435	    184.686614	     68.177479	      0.024801	      0.187931	      0.399961	      0.112926	      0.391981	      0.108002	      0.937146	      0.049577	      0.722729	      0.052755	      0.697756	      0.038320
      0.481528	     13.648656	    395.736668	    184.696020	     69.679184	      0.024793	      0.187968	      0.399240	      0.112927	      0.391283	      0.108003	      0.937595	      0.049559	      0.718949	      0.052758	      0.694196	      0.038320
      0.481664	     13.702655	    395.743267	    184.705628	     71.150279	      0.024784	      0.187996	      0.398523	      0.112928	      0.390588	      0.108004	      0.938040	      0.049540	      0.715202	      0.052761	      0.690667	      0.038320
      0.481801	     13.756655	    395.742272	    184.715436	     72.589979	      0.024775	      0.188035	      0.397809	      0.112929	      0.389896	      0.108005	      0.938481	      0.049522	      0.711489	      0.052765	      0.687168	      0.038320
